<svg width="33" height="20" viewBox="0 0 33 20" fill="none" xmlns="http://www.w3.org/2000/svg">
<g clip-path="url(#clip0_774_2648)">
<path d="M20.5301 2.14062H11.7793V17.8623H20.5301V2.14062Z" fill="#FF5A00"/>
<path d="M12.3615 10C12.3615 6.80583 13.8631 3.97087 16.1673 2.13916C14.4715 0.805825 12.3324 0 9.99902 0C4.47152 0 -0.000976562 4.47249 -0.000976562 10C-0.000976562 15.5275 4.47152 20 9.99902 20C12.3324 20 14.4715 19.1942 16.1673 17.8608C13.8599 16.055 12.3615 13.1942 12.3615 10Z" fill="#EB001B"/>
<path d="M32.3343 10C32.3343 15.5275 27.8618 20 22.3343 20C20.001 20 17.8618 19.1942 16.166 17.8608C18.4993 16.0259 19.9718 13.1942 19.9718 10C19.9718 6.80583 18.4702 3.97087 16.166 2.13916C17.8586 0.805825 19.9977 0 22.3311 0C27.8618 0 32.3343 4.50162 32.3343 10Z" fill="#F79E1B"/>
</g>
<defs>
<clipPath id="clip0_774_2648">
<rect width="32.3363" height="20" fill="white"/>
</clipPath>
</defs>
</svg>
