<svg width="170" height="24" viewBox="0 0 170 24" fill="none" xmlns="http://www.w3.org/2000/svg">
<path fill-rule="evenodd" clip-rule="evenodd" d="M26.0277 23.5753V11.3798C26.0277 7.92023 24.1492 6.27786 20.9947 6.27786C18.3717 6.27786 16.1034 7.81547 15.1109 9.35289C14.4728 7.43098 12.8779 6.27786 10.3614 6.27786C7.73846 6.27786 5.4702 7.88526 4.76118 8.89861V6.69734H0.259766V23.5753H4.76118V12.2185C5.43471 11.275 6.7461 10.2266 8.30553 10.2266C10.1487 10.2266 10.8575 11.3448 10.8575 12.9174V23.5753H15.3944V12.1835C16.0325 11.275 17.3439 10.2266 18.9388 10.2266C20.7819 10.2266 21.4908 11.3448 21.4908 12.9174L21.4909 23.5753H26.0277ZM38.3978 23.9946C32.7622 23.9946 29.3595 19.941 29.3595 15.1188C29.3595 10.3314 32.762 6.27804 38.3978 6.27804C44.0688 6.27804 47.4716 10.3316 47.4716 15.1188C47.4716 19.941 44.069 23.9946 38.3978 23.9946ZM38.3978 20.046C41.1978 20.046 42.7929 17.7745 42.7929 15.1188C42.7929 12.4981 41.198 10.2266 38.3978 10.2266C35.5976 10.2266 34.0381 12.4981 34.0381 15.1188C34.0381 17.7745 35.5977 20.046 38.3978 20.046ZM66.8596 23.5753V11.6593C66.8596 8.37453 65.0519 6.27786 61.2948 6.27786C58.4948 6.27786 56.4036 7.60573 55.3048 8.89861V6.69734H50.8032V23.5753H55.3048V12.2185C56.0491 11.2052 57.4315 10.2266 59.2036 10.2266C61.1176 10.2266 62.3582 11.0304 62.3582 13.3717V23.5753H66.8596ZM79.265 23.9946C73.6295 23.9946 70.2267 19.941 70.2267 15.1188C70.2267 10.3314 73.6293 6.27804 79.265 6.27804C84.9361 6.27804 88.3388 10.3316 88.3388 15.1188C88.3388 19.941 84.9362 23.9946 79.265 23.9946ZM79.265 20.046C82.065 20.046 83.6602 17.7745 83.6602 15.1188C83.6602 12.4981 82.0652 10.2266 79.265 10.2266C76.4648 10.2266 74.9054 12.4981 74.9054 15.1188C74.9054 17.7745 76.465 20.046 79.265 20.046ZM96.1719 18.1588C96.9162 19.2422 98.5821 20.0458 100.035 20.0458C102.658 20.0458 104.395 18.0889 104.395 15.1536C104.395 12.2184 102.658 10.2265 100.035 10.2265C98.5821 10.2265 96.9162 11.0651 96.1719 12.1834V18.1588ZM96.1719 23.5753H91.6704V0.267578H96.1719V8.86379C97.5187 7.15161 99.4327 6.27786 101.453 6.27786C105.813 6.27786 109.038 9.63241 109.038 15.1536C109.038 20.7796 105.777 23.9944 101.453 23.9944C99.3974 23.9944 97.5187 23.0858 96.1719 21.4084V23.5753ZM127.221 23.5753H122.72V21.8281C121.55 23.1909 119.53 23.9946 117.297 23.9946C114.567 23.9946 111.342 22.1774 111.342 18.4036C111.342 14.455 114.568 12.9523 117.297 12.9523C119.565 12.9523 121.585 13.6862 122.72 15.014V12.7426C122.72 11.0304 121.231 9.91214 118.963 9.91214C117.119 9.91214 115.418 10.5762 113.965 11.904L112.264 8.93377C114.355 7.11663 117.049 6.27804 119.742 6.27804C123.641 6.27804 127.221 7.81565 127.221 12.6728L127.221 23.5753ZM119.104 20.9893C120.558 20.9893 121.975 20.5001 122.72 19.5217V17.425C121.975 16.4467 120.558 15.9574 119.104 15.9574C117.332 15.9574 115.879 16.866 115.879 18.5083C115.879 20.0808 117.332 20.9893 119.104 20.9893ZM147.743 23.5753V11.6593C147.743 8.37453 145.936 6.27786 142.179 6.27786C139.379 6.27786 137.287 7.60573 136.188 8.89861V6.69734H131.687V23.5753H136.188V12.2185C136.933 11.2052 138.315 10.2266 140.087 10.2266C142.001 10.2266 143.242 11.0304 143.242 13.3717V23.5753H147.743ZM168.939 23.5753L161.957 14.35L168.726 6.69734H163.197L156.711 14.2102V0.267578H152.209V23.5753H156.711V19.2422L158.766 17.0757L163.303 23.5753H168.939Z" fill="black"/>
</svg>
