<svg width="166" height="34" viewBox="0 0 166 34" fill="none" xmlns="http://www.w3.org/2000/svg">
<g clip-path="url(#clip0_939_5972)">
<path fill-rule="evenodd" clip-rule="evenodd" d="M11.9053 29.2246L0.603516 29.2119L0.616203 17.9102L11.918 17.9228L11.9053 29.2246Z" fill="black"/>
<path fill-rule="evenodd" clip-rule="evenodd" d="M39.2323 29.6886H34.1787V12.082H52.3592V29.6886H47.3085V15.4999H39.2323V29.6886ZM54.8069 16.5686V34.0014H59.4584V28.0363C61.017 29.7023 63.5575 29.8291 64.1723 29.8291C68.6091 29.8291 71.3311 27.0408 71.3311 22.9817C71.3311 18.7587 68.6394 16.0904 64.2621 16.0904C63.1612 16.0904 61.017 16.266 59.2466 18.1009H59.15L59.1841 16.5686H54.8069ZM59.2476 22.9349C59.2476 19.3628 61.4777 18.663 62.8831 18.663C64.2621 18.663 66.4961 19.3628 66.4961 22.9349C66.4961 25.1474 65.5504 27.2623 62.8831 27.2623C60.1611 27.2623 59.2466 25.1474 59.2466 22.9349H59.2476ZM82.8691 27.8147C81.1553 29.4036 79.501 29.8291 77.6671 29.8291C72.6496 29.8291 72.4613 26.1058 72.4613 24.5725V16.5686H77.1147V23.9684C77.1147 26.5069 78.0058 27.2633 79.7177 27.2633C82.6573 27.2633 82.8691 24.6692 82.8691 23.7371V16.5686H87.5167V29.348H82.8691V27.8147ZM94.1884 23.9684H97.0353C99.2381 23.9684 99.6997 24.6165 99.6997 25.4734C99.6997 26.0297 99.3933 26.7812 97.0978 26.7812H94.1894V23.9684H94.1884ZM89.5408 16.5686V29.349H98.7784C102.147 29.349 104.472 28.6951 104.472 26.0863C104.472 24.068 103.338 23.1857 100.767 22.7358V22.6587C102.449 22.4342 103.92 21.3967 103.92 19.6634C103.92 16.5696 100.246 16.5696 98.8116 16.5696H89.5408V16.5686ZM94.1884 19.1354H96.6976C98.0172 19.1354 99.1464 19.3355 99.1464 20.3934C99.1464 21.55 97.373 21.5773 96.6088 21.5773H94.1884V19.1344V19.1354ZM110.351 20.696C110.351 18.8084 112.363 18.663 113.193 18.663C113.715 18.663 115.644 18.6874 115.701 20.3476V20.696C115.611 21.9569 114.388 21.6983 110.96 22.1307C108.141 22.5064 105.179 23.213 105.179 26.1302C105.179 27.1882 105.634 29.8291 110.593 29.8291C112.491 29.8291 114.57 29.349 115.795 28.089H115.887L116.283 29.348H121.176V29.1264C120.292 28.9469 120.235 28.089 120.264 26.7109L120.355 20.8717C120.385 19.3882 120.235 16.0904 113.222 16.0904C111.543 16.0904 106.125 16.2416 105.911 20.696H110.351ZM115.735 24.067C115.735 26.6338 113.471 27.2633 112.333 27.2633C111.484 27.2633 109.95 26.9852 109.95 25.7759C109.95 24.3422 111.693 24.068 112.674 23.944C114.479 23.6883 114.328 23.7615 115.735 23.2599V24.067ZM120.874 19.1344V16.5676H135.809V19.1344H130.669V29.349H126.014V19.1344H120.874Z" fill="#74B027"/>
<path fill-rule="evenodd" clip-rule="evenodd" d="M0.412109 29.3954H12.0662V17.8984H0.412109V29.3954Z" fill="#363636"/>
<path fill-rule="evenodd" clip-rule="evenodd" d="M24.0492 6.07641V23.3199H21.6776C20.6489 14.7938 15.2176 9.43767 6.57246 8.42168V6.07641H24.0502H24.0492ZM0.412109 0V14.3039H3.49326C11.5987 14.3039 15.7124 18.359 15.7124 26.3571V29.3954H30.2115V0H0.412109Z" fill="#74B027"/>
<path d="M149.402 23.5714V26.9297H136.728C136.866 25.6602 137.277 24.4593 137.964 23.327C138.65 22.1861 140.005 20.6764 142.03 18.7978C143.659 17.2796 144.659 16.2502 145.028 15.7098C145.525 14.9635 145.774 14.2258 145.774 13.4967C145.774 12.6904 145.555 12.0728 145.118 11.6439C144.689 11.2064 144.093 10.9877 143.329 10.9877C142.574 10.9877 141.974 11.215 141.528 11.6696C141.082 12.1242 140.824 12.8791 140.756 13.9342L137.153 13.5739C137.368 11.5838 138.041 10.1556 139.173 9.28925C140.305 8.42288 141.721 7.9897 143.419 7.9897C145.281 7.9897 146.743 8.4915 147.807 9.49512C148.87 10.4987 149.402 11.7468 149.402 13.2394C149.402 14.0886 149.248 14.8992 148.939 15.6712C148.639 16.4346 148.159 17.2367 147.498 18.0773C147.061 18.6349 146.271 19.4369 145.131 20.4834C143.99 21.5299 143.265 22.2247 142.956 22.5678C142.656 22.9109 142.411 23.2455 142.223 23.5714H149.402ZM158.95 26.9297V23.134H151.229V19.9687L159.413 7.9897H162.449V19.9559H164.791V23.134H162.449V26.9297H158.95ZM158.95 19.9559V13.5096L154.613 19.9559H158.95Z" fill="#363636"/>
</g>
<defs>
<clipPath id="clip0_939_5972">
<rect width="164.842" height="34" fill="white" transform="translate(0.412109)"/>
</clipPath>
</defs>
</svg>
