<svg width="62" height="20" viewBox="0 0 62 20" fill="none" xmlns="http://www.w3.org/2000/svg">
<g clip-path="url(#clip0_774_2641)">
<path d="M26.7784 19.7118H21.7725L24.9035 0.351562H29.9092L26.7784 19.7118Z" fill="#00579F"/>
<path d="M44.9257 0.824244C43.9383 0.432516 42.3722 0 40.4357 0C35.4922 0 32.011 2.63616 31.9896 6.40506C31.9486 9.18576 34.4821 10.7302 36.3769 11.6574C38.3137 12.6048 38.972 13.2232 38.972 14.0677C38.9523 15.3647 37.407 15.9626 35.9658 15.9626C33.9672 15.9626 32.8963 15.6543 31.2689 14.9327L30.6097 14.6234L29.9092 18.9694C31.0833 19.5043 33.2464 19.9789 35.4922 19.9997C40.7448 19.9997 44.1644 17.4044 44.2049 13.388C44.2249 11.1841 42.8871 9.49536 40.0029 8.11542C38.2521 7.22958 37.1798 6.63227 37.1798 5.72591C37.2004 4.90194 38.0867 4.05798 40.0632 4.05798C41.6906 4.01665 42.8863 4.40783 43.7921 4.79928L44.2449 5.00486L44.9257 0.824244Z" fill="#00579F"/>
<path d="M51.579 12.8532C51.9913 11.741 53.5776 7.43633 53.5776 7.43633C53.5568 7.47767 53.9891 6.30358 54.2363 5.58281L54.5861 7.25101C54.5861 7.25101 55.5341 11.8852 55.7399 12.8532C54.9576 12.8532 52.5678 12.8532 51.579 12.8532ZM57.7582 0.351562H53.8861C52.6921 0.351562 51.7849 0.701407 51.2697 1.95789L43.834 19.7116H49.0866C49.0866 19.7116 49.9513 17.3221 50.1372 16.8074C50.7134 16.8074 55.8231 16.8074 56.5644 16.8074C56.7082 17.4871 57.1618 19.7116 57.1618 19.7116H61.7968L57.7582 0.351562Z" fill="#00579F"/>
<path d="M17.5907 0.351562L12.6882 13.5534L12.1525 10.8759C11.2461 7.78645 8.40359 4.4298 5.23145 2.76078L9.72194 19.6913H15.0156L22.8841 0.351562H17.5907Z" fill="#00579F"/>
<path d="M8.13649 0.351562H0.0823966L0 0.742742C6.2827 2.34935 10.4436 6.222 12.1531 10.8767L10.4023 1.97897C10.114 0.742469 9.22819 0.39235 8.13649 0.351562Z" fill="#FAA61A"/>
</g>
<defs>
<clipPath id="clip0_774_2641">
<rect width="61.7966" height="19.9997" fill="white"/>
</clipPath>
</defs>
</svg>
